<?xml version="1.0" encoding="UTF-8" standalone="no"?>
<svg viewBox="0 0 50 50" xmlns="http://www.w3.org/2000/svg">
<title>personnage</title>
<g enable-background="new" transform="matrix(.433195,-.074499,.074499,.433195,-50.203011,64.2911)">
<g transform="translate(146.08826,-115.96111)">
<path d="m.27375,81.91965-3.53355-43.68438 28.98431,13.30709 3.80338,51.61176-29.25414-21.23447z" fill-rule="evenodd" stroke="#000" stroke-linecap="round" stroke-linejoin="round"/>
<path d="m29.76854,102.75531 30.10664-16.83154-.0567-49.84721-33.69202,14.84781 3.64208,51.83094z" fill="#fff" fill-rule="evenodd" stroke="#000" stroke-linecap="round" stroke-linejoin="round" stroke-width="2.27503"/>
<path d="m-2.81362,38.27816 34.16537-12.05837 28.53813,9.84767-33.76342,15.4749-28.94008-13.2642z" fill="#fff" fill-rule="evenodd" stroke="#000" stroke-linecap="round" stroke-linejoin="round" stroke-width="2.27503"/>
<g transform="matrix(1.098744,0,0,1.098744,-6.460377,12.287634)">
<path d="m30.5792,5.02834c-9.98433,0-18.08883,2.52519-18.08883,5.63143 0,.23297.05367.45703.14221.6826l.31286,8.21961c-.07483.20773 1.19304,2.8577 1.34952,3.00356 2.74367,2.5575 6.79569,3.98523 16.78001,3.98523s17.17428-2.34228 17.17428-5.44852c0-.36887.60846-1.64622.39035-1.99534v-8.16273c.01564-.09587.02844-.18735.02844-.28441s-.0128-.18855-.02844-.28442v-.25597h-.05688c-.88613-2.84949-8.6132-5.09104-18.00351-5.09104z" fill-rule="evenodd" stroke="#000" stroke-linecap="round" stroke-linejoin="round" stroke-width=".70866"/>
<path d="m49.4393,7.7303c0,3.10784-8.09807,5.62724-18.08755,5.62724s-18.08755-2.5194-18.08755-5.62724 8.09807-5.62724 18.08755-5.62724 18.08755,2.5194 18.08755,5.62724z" fill="#fff" fill-rule="evenodd" transform="matrix(.847362,0,0,.778113,4.17888,4.39555)"/>
</g>
</g>
<path d="m191.84742-88.38121v7.38968c0,0-.66307,2.41676-10.51608,4.83171-9.53627,2.33732.0853-9.62078-.28422-9.37921 0,0 4.5475.28422 10.8003-2.84218z" fill="#fff" fill-rule="evenodd" stroke="#000"/>
</g>
</svg>
